<?xml version="1.0" encoding="UTF-8" standalone="no"?>
<svg width="100px" height="89px" viewBox="0 0 100 89" version="1.1" xmlns="http://www.w3.org/2000/svg" xmlns:xlink="http://www.w3.org/1999/xlink" xmlns:sketch="http://www.bohemiancoding.com/sketch/ns">
    <!-- Generator: Sketch 3.3.3 (12081) - http://www.bohemiancoding.com/sketch -->
    <title>noun_15343_cc</title>
    <desc>Created with Sketch.</desc>
    <defs></defs>
    <g id="Page-1" stroke="none" stroke-width="1" fill="none" fill-rule="evenodd" sketch:type="MSPage">
        <g id="noun_15343_cc" sketch:type="MSLayerGroup" transform="translate(0.000000, -1.000000)" fill="#000000">
            <path d="M98.63,12.455 C97.579,10.902 95.019,8.47 89.694,9.619 C87.715,10.043 85.153,12.389 77.433,20.892 C76.956,19.975 76.303,19.134 75.507,18.427 C74.109,17.184 72.316,16.37 70.511,16.136 L70.511,16.131 C70.614,13.2 69.089,10.251 66.543,8.432 C64.346,6.865 61.727,6.382 59.267,7.063 C58.815,5.491 58.006,4.09 57.048,3.236 C55.65,1.994 52.105,0.479 48.928,1.175 C48.228,1.328 47.528,1.627 46.845,2.064 C43.95,3.924 34.569,15.219 33.391,17.076 C32.863,17.907 32.519,18.712 32.341,19.537 C32.306,19.705 32.28,19.882 32.261,20.064 L29.537,17.242 C27.781,15.438 26.247,13.856 25.07,12.596 C24.449,11.93 23.934,11.359 23.501,10.875 C23.5,10.872 23.42,10.783 23.42,10.783 C22.734,10.021 22.087,9.302 21.287,8.492 C18.079,5.242 13.361,3.513 8.975,3.981 C5.381,4.363 2.362,6.209 0.476,9.178 C0.102,9.764 -0.058,10.467 0.019,11.21 L0.016,11.128 C-0.017,11.889 0.213,12.63 0.662,13.213 C3.508,16.902 13.339,29.622 20.369,38.423 C21.087,39.321 21.851,40.146 22.591,40.943 C22.878,41.253 23.149,41.552 23.409,41.841 C23.106,43.095 23.341,44.526 23.544,45.634 C22.655,46.597 21.656,47.644 20.337,48.999 C12.499,57.048 2.746,67.06 11.466,78.035 C13.144,80.145 21.971,87.03 24.089,88.195 C27.961,90.321 31.83,90.449 36.267,88.589 C38.13,87.811 40.65,85.112 47.383,77.604 C51.175,73.373 58.238,65.494 59.959,64.771 C60.689,64.462 61.284,63.889 61.625,63.172 C62.284,63.015 62.855,62.832 63.39,62.608 C66.174,61.44 69.474,58.659 71.751,56.532 C75.46,53.064 77.053,50.455 78.301,45.798 C78.322,45.712 78.342,45.629 78.36,45.547 C79.008,45.345 79.571,44.949 79.972,44.401 C82.579,40.843 90.208,32.621 94.304,28.204 C97.248,25.034 97.579,24.667 97.833,24.29 C100.019,21.057 100.993,15.956 98.63,12.455 L98.63,12.455 Z M77.271,42.203 C77.211,42.089 77.238,41.691 77.25,41.492 C77.275,41.117 77.298,40.763 77.18,40.494 L77.047,40.199 L76.764,40.355 C75.486,41.061 75.301,42.486 75.137,43.744 C75.079,44.164 75.031,44.561 74.942,44.895 C73.875,48.873 72.575,50.999 69.376,53.988 C67.683,55.572 64.48,58.38 62.042,59.402 C61.107,59.794 59.994,59.977 58.919,60.152 C57.468,60.39 55.97,60.635 54.76,61.398 L54.497,61.563 L54.674,61.819 C55.144,62.499 56.208,62.346 57.236,62.201 C57.36,62.184 57.484,62.168 57.606,62.152 C54.797,64.124 49.723,69.784 44.794,75.282 C40.391,80.194 36.231,84.834 34.925,85.381 C31.499,86.816 28.675,86.743 25.767,85.146 C23.86,84.099 15.443,77.445 14.192,75.872 C7.379,67.296 15.234,59.229 22.831,51.431 C24.377,49.844 25.835,48.345 27.163,46.847 L27.253,46.747 L27.236,46.614 C27.177,46.156 27.083,45.647 26.993,45.156 C26.908,44.693 26.792,44.058 26.738,43.546 C28.146,47.408 31.686,50.496 36.049,51.559 C40.424,52.626 44.66,51.434 47.38,48.371 L47.726,47.982 L47.217,47.88 C45.94,47.625 44.994,48.33 44.081,49.013 C43.49,49.456 42.879,49.913 42.177,50.109 C38.827,51.047 34.424,49.966 32.263,48.428 C30.078,46.869 28.032,45.022 27.858,42.065 L27.855,42.005 L27.827,41.95 C27.33,40.94 26.269,39.795 25.145,38.581 C24.447,37.828 23.725,37.048 23.088,36.251 C16.222,27.655 6.699,15.341 3.624,11.355 C3.735,11.219 3.723,11.067 3.718,11.023 C3.704,10.933 3.654,10.853 3.591,10.782 C5.261,8.362 7.624,7.624 9.343,7.44 C12.65,7.088 16.366,8.46 18.81,10.936 C19.581,11.718 20.195,12.401 20.906,13.192 C21.398,13.738 21.906,14.305 22.526,14.97 C23.769,16.301 25.427,18.008 27.031,19.657 C28.891,21.57 30.815,23.548 32.007,24.862 L32.025,24.882 L32.045,24.898 C32.314,25.107 32.594,25.188 32.878,25.139 C33.492,25.029 33.927,24.336 34.314,23.722 C34.376,23.622 34.438,23.525 34.497,23.436 C34.925,23.846 35.327,24.302 35.716,24.749 C37.159,26.409 38.648,28.121 41.838,27.908 C40.859,29.439 40.703,31.244 41.408,33.064 C42.401,35.621 44.946,37.754 47.457,38.134 C48.973,38.364 50.337,37.924 51.355,36.899 C52.178,39.481 53.971,41.804 56.128,43.046 C57.622,43.905 59.177,44.174 60.514,43.807 C61.836,43.442 66.623,38.169 74.346,29.531 C81.117,21.957 88.792,13.372 90.429,13.021 C92.932,12.482 94.771,12.961 95.747,14.408 C97.177,16.523 96.467,20.104 94.952,22.342 C94.824,22.532 93.404,24.061 91.764,25.83 C87.377,30.556 80.076,38.423 77.271,42.203 L77.271,42.203 Z M54.737,5.837 C55.989,6.951 56.725,10.244 55.708,11.389 C54.735,12.345 50.957,16.975 47.923,20.695 C45.914,23.156 44.017,25.484 43.752,25.731 C43.285,26.171 42.858,26.401 42.371,26.477 C40.915,26.702 38.896,25.747 37.346,24.101 C36.107,22.786 35.508,21.356 35.741,20.277 C35.833,19.857 36.026,19.418 36.331,18.941 C37.335,17.356 46.531,6.403 48.723,4.997 C49.057,4.783 49.377,4.642 49.675,4.577 C51.727,4.125 54.129,5.296 54.737,5.837 L54.737,5.837 Z M64.523,11.265 C66.108,12.396 67.092,14.258 67.034,16.008 C67.02,16.414 66.896,16.838 66.662,17.3 C66.164,18.279 65.248,19.25 64.283,20.276 C63.915,20.665 63.537,21.068 63.182,21.47 L60.343,24.727 C56.677,28.944 53.216,32.929 49.458,36.51 C47.639,36.625 45.506,35.808 44.117,34.455 C43.35,33.705 42.454,32.442 42.554,30.667 C42.627,29.38 44.135,27.72 45.464,26.254 C45.797,25.886 46.113,25.538 46.409,25.195 C48.072,23.264 56.147,13.983 58.439,11.407 C58.758,11.046 59.186,10.766 59.747,10.552 C61.308,9.953 63.049,10.214 64.523,11.265 L64.523,11.265 Z M73.805,26.781 C73.576,27.038 72.974,27.796 72.143,28.845 C69.142,32.629 62.114,41.492 60.274,42.077 C58.299,42.524 55.438,40.353 54.122,38.121 C53.402,36.905 53.267,35.896 53.754,35.35 L55.572,33.242 C58.374,29.998 63.063,24.565 66.169,21.072 C68.199,18.79 71.305,19.345 73.196,21.028 C74.787,22.443 75.591,24.77 73.805,26.781 L73.805,26.781 Z" id="Shape" sketch:type="MSShapeGroup"></path>
        </g>
    </g>
</svg>