<?xml version="1.0" encoding="UTF-8" standalone="no"?>
<svg width="50px" height="87px" viewBox="0 0 50 87" version="1.1" xmlns="http://www.w3.org/2000/svg" xmlns:xlink="http://www.w3.org/1999/xlink" xmlns:sketch="http://www.bohemiancoding.com/sketch/ns">
    <!-- Generator: Sketch 3.3.3 (12081) - http://www.bohemiancoding.com/sketch -->
    <title>noun_61038_cc</title>
    <desc>Created with Sketch.</desc>
    <defs></defs>
    <g id="Page-1" stroke="none" stroke-width="1" fill="none" fill-rule="evenodd" sketch:type="MSPage">
        <g id="noun_61038_cc" sketch:type="MSLayerGroup" fill="#000000">
            <path d="M43.2,39.6 L49.6,11.7 C50,10.2 49.8,8.6 49,7.3 C48.2,5.9 46.9,4.9 45.4,4.5 C42.2,3.7 39,5.5 38.1,8.6 L31.3,32.8 L26.3,5.8 C26,4.1 25.1,2.6 23.6,1.6 C22.2,0.6 20.5,0.2 18.8,0.5 C17.1,0.8 15.6,1.7 14.6,3.2 C13.6,4.6 13.2,6.3 13.5,8 L17.3,29.5 L16.5,29.5 C13.5,29.5 10.9,31.6 10.3,34.4 C9.3,33.7 8,33.3 6.7,33.3 C3.1,33.3 0.3,36.2 0.3,39.7 L0.3,55.1 L0.3,55.7 L0.3,56.3 C0.3,69.3 2.5,74.9 4.1,79 C5,81.3 5.7,83 5.7,85.4 C5.7,86.2 6.4,86.9 7.2,86.9 C8,86.9 8.7,86.2 8.7,85.4 C8.7,82.4 7.9,80.3 6.9,77.9 C5.6,74.5 3.8,70 3.4,60.7 C4.4,61.3 5.5,61.6 6.7,61.6 C9.7,61.6 12.3,59.5 12.9,56.7 C13.9,57.4 15.2,57.8 16.5,57.8 C20.1,57.8 22.9,54.9 22.9,51.4 L22.9,42.9 C24.7,45.5 27.8,46.9 30.6,48.1 L32.8,55 C25.3,56.5 22.2,66.3 22.1,66.7 C21.9,67.5 22.3,68.3 23.1,68.6 C23.9,68.8 24.7,68.4 25,67.6 C25,67.5 28,57.8 34.8,57.8 C35.3,57.8 35.7,57.6 36,57.2 C36.3,56.8 36.4,56.3 36.2,55.9 L33.2,46.6 C33.1,46.2 32.8,45.8 32.4,45.7 C26.3,43 23.4,41 25,35.5 L34.6,39.3 C36,39.9 37.1,40.7 38,42.1 L42.4,51.7 C42.9,53.4 42.9,54.1 42.9,56.1 L42.9,56.3 C42.6,67 40.1,72.6 38.1,77.1 C36.8,80 35.7,82.5 35.7,85.5 C35.7,86.3 36.4,87 37.2,87 C38,87 38.7,86.3 38.7,85.5 C38.7,83.1 39.6,81.1 40.8,78.3 C42.8,73.8 45.5,67.7 45.9,56.4 L45.9,56.1 C45.9,53.9 45.9,52.9 45.2,50.7 C45.2,50.6 45.2,50.6 45.1,50.5 L42.6,45 L42.6,44.9 L43.2,39.6 L43.2,39.6 Z M10.1,55.2 C10.1,57.1 8.6,58.6 6.7,58.6 C4.9,58.6 3.4,57.2 3.3,55.5 L3.3,55.2 L3.3,54.9 L3.3,39.8 C3.3,37.9 4.8,36.4 6.7,36.4 C8.6,36.4 10.1,37.9 10.1,39.8 L10.1,51.4 L10.1,55.2 L10.1,55.2 Z M20,51.4 C20,53.3 18.5,54.8 16.6,54.8 C14.7,54.8 13.2,53.3 13.2,51.4 L13.2,39.8 L13.2,36 C13.2,34.1 14.7,32.6 16.6,32.6 C18.5,32.6 20,34.1 20,36 L20,51.4 L20,51.4 Z M24.7,32.2 C24.3,32.1 23.9,32.1 23.5,32.2 C23.1,32.4 22.8,32.7 22.7,33 C22.6,33.2 22.6,33.4 22.5,33.5 C22.1,32.5 21.4,31.7 20.6,31 L16.5,7.6 C16.3,6.7 16.5,5.8 17.1,5 C17.6,4.2 18.4,3.7 19.3,3.6 C20.2,3.4 21.1,3.6 21.9,4.2 C22.7,4.7 23.2,5.5 23.3,6.4 L28.3,33.6 L24.7,32.2 L24.7,32.2 Z M35.7,36.5 L33.6,35.7 L41,9.5 C41.4,8 43.1,7 44.6,7.5 C45.4,7.7 46,8.2 46.4,8.9 C46.8,9.6 46.9,10.3 46.7,11.1 L40.3,39.1 L40.3,39.3 L40.1,40 C38.9,38.4 37.5,37.3 35.7,36.5 L35.7,36.5 Z" id="Shape" sketch:type="MSShapeGroup"></path>
        </g>
    </g>
</svg>